<svg width="1633" height="2301" xmlns="http://www.w3.org/2000/svg" xmlns:xlink="http://www.w3.org/1999/xlink" xml:space="preserve" overflow="hidden"><defs><linearGradient x1="122.527" y1="487.905" x2="2238.47" y2="1967.09" gradientUnits="userSpaceOnUse" spreadMethod="reflect" id="fill0"><stop offset="0" stop-color="#F8E3C4"/><stop offset="0.49" stop-color="#F8E3C4"/><stop offset="0.77" stop-color="#AF99FF"/><stop offset="1" stop-color="#AF99FF"/></linearGradient></defs><g transform="translate(-379 -87)"><path d="M943.602 1209.84C961.973 1209.84 978.604 1217.29 990.644 1229.33L999.03 1241.77 1007.42 1229.33C1019.46 1217.29 1036.09 1209.84 1054.46 1209.84 1072.83 1209.84 1089.46 1217.29 1101.5 1229.33L1109.89 1241.77 1118.27 1229.33C1130.31 1217.29 1146.94 1209.84 1165.31 1209.84 1202.06 1209.84 1231.84 1239.64 1231.84 1276.39 1231.84 1313.14 1202.06 1342.94 1165.31 1342.94 1146.94 1342.94 1130.31 1335.49 1118.27 1323.45L1109.89 1311 1101.5 1323.45C1089.46 1335.49 1072.83 1342.94 1054.46 1342.94 1036.09 1342.94 1019.46 1335.49 1007.42 1323.45L999.03 1311 990.644 1323.45C978.604 1335.49 961.973 1342.94 943.602 1342.94 906.86 1342.94 877.076 1313.14 877.076 1276.39 877.076 1239.64 906.86 1209.84 943.602 1209.84ZM917.575 121.28C926.688 121.866 935.88 123.373 945.035 125.868 1018.27 145.826 1061.47 221.399 1041.52 294.664L741.469 1396.51 1259.46 1396.51 1281.86 1398.76 1364.52 1095.22 1164.89 1095.22C1088.99 1095.22 1027.45 1033.66 1027.45 957.726 1027.45 881.791 1088.99 820.233 1164.89 820.233L1860.56 820.233C1936.46 820.233 1998 881.791 1998 957.726 1998 1033.66 1936.46 1095.22 1860.56 1095.22L1649.42 1095.22 1328.8 2272.61C1308.85 2345.88 1233.3 2389.09 1160.06 2369.13 1086.82 2349.17 1043.62 2273.6 1063.58 2200.33L1207.59 1671.49 563.799 1671.49 561.761 1671.29 552.813 1671.6C543.699 1671.01 534.508 1669.51 525.353 1667.01 452.114 1647.05 408.915 1571.48 428.867 1498.21L776.297 222.388C793.755 158.282 853.777 117.183 917.575 121.28Z" stroke="#262626" stroke-width="27.5" stroke-miterlimit="8" fill="#262626" fill-rule="evenodd"/><path d="M912.932 1189.84C931.314 1189.84 947.957 1197.29 960.004 1209.33L968.395 1221.78 976.787 1209.33C988.834 1197.29 1005.48 1189.84 1023.86 1189.84 1042.24 1189.84 1058.88 1197.29 1070.93 1209.33L1079.32 1221.78 1087.71 1209.33C1099.76 1197.29 1116.4 1189.84 1134.78 1189.84 1171.55 1189.84 1201.35 1219.64 1201.35 1256.39 1201.35 1293.14 1171.55 1322.94 1134.78 1322.94 1116.4 1322.94 1099.76 1315.49 1087.71 1303.45L1079.32 1291 1070.93 1303.45C1058.88 1315.49 1042.24 1322.94 1023.86 1322.94 1005.48 1322.94 988.834 1315.49 976.787 1303.45L968.395 1291 960.004 1303.45C947.957 1315.49 931.314 1322.94 912.932 1322.94 876.167 1322.94 846.364 1293.14 846.364 1256.39 846.364 1219.64 876.167 1189.84 912.932 1189.84ZM886.888 101.28C896.008 101.866 905.205 103.374 914.366 105.868 987.651 125.827 1030.88 201.399 1010.91 274.665L710.671 1376.51 1228.99 1376.51 1251.4 1378.76 1334.12 1075.22 1134.36 1075.22C1058.41 1075.22 996.833 1013.66 996.833 937.726 996.833 861.791 1058.41 800.233 1134.36 800.233L1830.47 800.233C1906.42 800.233 1968 861.791 1968 937.726 1968 1013.66 1906.42 1075.22 1830.47 1075.22L1619.2 1075.22 1298.37 2252.61C1278.41 2325.88 1202.82 2369.09 1129.53 2349.13 1056.24 2329.17 1013.02 2253.6 1032.98 2180.33L1177.09 1651.49 532.888 1651.49 530.849 1651.29 521.895 1651.6C512.775 1651.01 503.578 1649.51 494.418 1647.01 421.132 1627.05 377.906 1551.48 397.87 1478.21L745.521 202.389C762.99 138.282 823.05 97.1828 886.888 101.28Z" stroke="#240058" stroke-width="27.5" stroke-miterlimit="8" fill="url(#fill0)" fill-rule="evenodd"/><path d="M1347.98 1161.99C1349.89 1155.11 1357.02 1151.07 1363.91 1152.98L1535.84 1200.61C1542.72 1202.52 1546.76 1209.65 1544.85 1216.54 1542.94 1223.42 1535.81 1227.46 1528.93 1225.55L1357 1177.92C1350.11 1176.01 1346.08 1168.88 1347.98 1161.99ZM1332.62 1216.67C1334.53 1209.78 1341.66 1205.74 1348.55 1207.65L1520.47 1255.28C1527.36 1257.19 1531.39 1264.32 1529.49 1271.21 1527.58 1278.1 1520.45 1282.13 1513.56 1280.23L1341.64 1232.59C1334.75 1230.69 1330.71 1223.56 1332.62 1216.67ZM1297.59 1342.57C1299.43 1337.87 1303.94 1334.5 1309.3 1334.35L1361.46 1332.97 1317.57 1304.76C1313.06 1301.87 1310.95 1296.64 1311.81 1291.67 1312.09 1290.01 1312.71 1288.38 1313.68 1286.88 1315.61 1283.88 1318.57 1281.94 1321.81 1281.23 1325.05 1280.53 1328.55 1281.06 1331.56 1282.99L1407.45 1331.76 1496.22 1329.41C1503.37 1329.22 1509.31 1334.86 1509.5 1342.01 1509.69 1349.15 1504.05 1355.1 1496.91 1355.28L1446.14 1356.63 1488.86 1384.08C1494.87 1387.94 1496.62 1395.95 1492.75 1401.96 1488.89 1407.98 1480.88 1409.72 1474.87 1405.85L1400.16 1357.84 1309.99 1360.23C1302.84 1360.42 1296.9 1354.78 1296.71 1347.63 1296.66 1345.85 1296.98 1344.13 1297.59 1342.57Z" fill="#240058" fill-rule="evenodd"/><path d="M624.354 767.369C626.178 762.599 630.718 759.138 636.142 758.949L688.947 757.105 644.256 728.917C638.135 725.056 636.302 716.964 640.163 710.843 644.024 704.721 652.116 702.889 658.238 706.75L735.497 755.479 825.37 752.341C832.603 752.088 838.671 757.747 838.923 764.98 839.176 772.213 833.517 778.281 826.285 778.533L774.893 780.328 818.386 807.76C824.508 811.621 826.34 819.713 822.479 825.835 818.619 831.956 810.526 833.788 804.405 829.927L728.344 781.953 637.057 785.141C629.824 785.394 623.756 779.735 623.503 772.502 623.44 770.694 623.747 768.959 624.354 767.369ZM600.998 854.534C602.822 849.765 607.361 846.304 612.786 846.115L665.591 844.271 620.9 816.083C616.309 813.187 614.13 807.911 614.957 802.872 615.232 801.192 615.842 799.538 616.807 798.008 620.668 791.887 628.76 790.054 634.881 793.915L712.141 842.645 802.014 839.507C809.247 839.254 815.315 844.913 815.567 852.145 815.82 859.378 810.161 865.446 802.929 865.699L751.537 867.493 795.03 894.926C801.152 898.787 802.984 906.879 799.123 913 795.262 919.122 787.17 920.954 781.049 917.093L704.987 869.119 613.701 872.307C606.468 872.559 600.4 866.901 600.147 859.668 600.084 857.86 600.39 856.124 600.998 854.534ZM578.2 939.617C580.024 934.848 584.564 931.387 589.988 931.197L642.793 929.353 598.102 901.166C593.511 898.27 591.332 892.994 592.159 887.955 592.434 886.275 593.044 884.621 594.009 883.091 597.87 876.97 605.962 875.137 612.084 878.998L689.343 927.728 779.216 924.589C786.449 924.337 792.517 929.995 792.769 937.228 793.022 944.461 787.363 950.529 780.131 950.782L728.739 952.576 772.232 980.009C778.354 983.87 780.186 991.962 776.325 998.083 772.464 1004.2 764.372 1006.04 758.251 1002.18L682.189 954.202 590.903 957.39C583.67 957.642 577.602 951.984 577.349 944.751 577.286 942.943 577.592 941.207 578.2 939.617Z" fill="#240058" fill-rule="evenodd"/><path d="M818.22 1585.55C815.63 1587.49 813.469 1589.59 811.737 1591.85 810.005 1594.11 808.988 1596.27 808.687 1598.34 808.589 1599.56 808.848 1600.53 809.465 1601.26 810.082 1601.99 810.882 1602.37 811.864 1602.39 812.927 1602.3 813.881 1601.35 814.727 1599.51 815.572 1597.68 816.291 1595.48 816.883 1592.9 817.474 1590.32 817.92 1587.87 818.22 1585.55ZM686.923 1516.71C684.679 1516.81 682.412 1518.01 680.121 1520.34 677.83 1522.66 675.751 1525.55 673.884 1529 672.017 1532.44 670.597 1535.9 669.625 1539.37 667.999 1545.46 667.438 1550.49 667.941 1554.48 668.444 1558.46 669.853 1560.56 672.169 1560.76 674.686 1560.64 677.188 1559.42 679.673 1557.11 682.159 1554.79 684.024 1552.46 685.27 1550.13 684.597 1548.08 684.862 1545.78 686.065 1543.23 687.268 1540.68 688.868 1538.76 690.866 1537.47 691.679 1534.27 692.101 1531.08 692.132 1527.93 692.164 1524.77 691.757 1522.13 690.913 1520.01 690.068 1517.9 688.738 1516.8 686.923 1516.71ZM546.074 1516.71C543.83 1516.81 541.563 1518.01 539.272 1520.34 536.981 1522.66 534.902 1525.55 533.035 1529 531.168 1532.44 529.749 1535.9 528.777 1539.37 527.15 1545.46 526.589 1550.49 527.092 1554.48 527.595 1558.46 529.005 1560.56 531.32 1560.76 533.837 1560.64 536.339 1559.42 538.824 1557.11 541.31 1554.79 543.175 1552.46 544.421 1550.13 543.748 1548.08 544.013 1545.78 545.216 1543.23 546.419 1540.68 548.02 1538.76 550.017 1537.47 550.83 1534.27 551.252 1531.08 551.284 1527.93 551.315 1524.77 550.908 1522.13 550.064 1520.01 549.219 1517.9 547.889 1516.8 546.074 1516.71ZM642.772 1478.39C646.289 1478.45 648.782 1479.51 650.251 1481.57 651.72 1483.63 652.022 1486.36 651.156 1489.77 650.206 1493.12 648.454 1495.81 645.9 1497.86 643.347 1499.91 640.356 1500.97 636.929 1501.02 633.524 1500.97 631.063 1499.94 629.546 1497.91 628.03 1495.88 627.696 1493.17 628.546 1489.77 629.433 1486.31 631.153 1483.56 633.706 1481.52 636.26 1479.48 639.282 1478.44 642.772 1478.39ZM492.639 1477 508.909 1477C508.239 1479.67 507.209 1483.63 505.817 1488.88 504.426 1494.13 502.877 1499.96 501.17 1506.38 499.464 1512.79 497.803 1519.08 496.188 1525.26 494.572 1531.43 493.207 1536.77 492.09 1541.29 490.973 1545.81 490.309 1548.8 490.097 1550.26 489.845 1551.8 489.935 1553.24 490.367 1554.58 490.798 1555.91 491.937 1556.62 493.783 1556.71 496.181 1556.54 498.728 1555.07 501.423 1552.29 504.119 1549.51 506.552 1546.44 508.725 1543.08 510.898 1539.73 512.399 1537.1 513.23 1535.2L513.648 1535.38 518.966 1523.39C521.226 1519.64 523.852 1516.41 526.844 1513.7 532.828 1508.28 539.45 1505.5 546.71 1505.34 552.667 1505.4 557.31 1507.21 560.642 1510.77 563.973 1514.33 565.822 1519.05 566.189 1524.91 566.557 1530.78 565.272 1537.2 562.336 1544.18 565.686 1544.63 568.416 1543.93 570.524 1542.09 572.633 1540.26 574.346 1537.89 575.664 1535 576.982 1532.11 578.13 1529.3 579.11 1526.59L579.278 1526.61 582.737 1513.04 576.642 1513.04 580.197 1500.91 586.166 1500.91 589.341 1488.77 607.517 1481.55 602.178 1500.79 610.948 1500.79 607.389 1513.04 598.873 1513.04C597.57 1518.23 596.264 1523.35 594.957 1528.4 593.648 1533.45 592.531 1537.84 591.604 1541.57 590.678 1545.3 590.135 1547.78 589.976 1549.01 589.714 1550.6 589.761 1552.25 590.119 1553.95 590.476 1555.65 591.573 1556.57 593.408 1556.71 596.763 1556.55 599.995 1555.13 603.105 1552.44 606.216 1549.75 608.902 1546.73 611.165 1543.4 613.428 1540.06 614.966 1537.35 615.778 1535.26L618.225 1536.3 618.723 1534.29C619.481 1531.28 620.285 1528.12 621.135 1524.8 622.834 1518.18 624.369 1512.15 625.739 1506.72L641.877 1506.72C640.758 1511.16 639.409 1516.32 637.828 1522.2 636.248 1528.08 634.795 1533.62 633.469 1538.83 632.143 1544.03 631.302 1547.84 630.946 1550.26 630.7 1551.8 630.811 1553.24 631.28 1554.58 631.748 1555.91 632.908 1556.62 634.759 1556.71 637.157 1556.54 639.718 1555.07 642.442 1552.29 645.165 1549.51 647.641 1546.44 649.87 1543.08 650.985 1541.4 651.936 1539.91 652.721 1538.59L654.345 1535.64 656.698 1529.41C659.541 1523 663.205 1517.76 667.693 1513.7 673.677 1508.28 680.299 1505.5 687.559 1505.34 693.516 1505.4 698.159 1507.21 701.491 1510.77 704.822 1514.33 706.671 1519.05 707.038 1524.91 707.406 1530.78 706.121 1537.2 703.185 1544.18 706.535 1544.63 709.265 1543.93 711.373 1542.09 713.482 1540.26 715.195 1537.89 716.513 1535 717.831 1532.11 718.979 1529.3 719.958 1526.59L720.296 1526.63 725.375 1506.73 741.263 1506.73 736.688 1524.05C740.26 1517.45 743.983 1512.61 747.856 1509.55 751.73 1506.48 755.674 1504.99 759.689 1505.09 764.039 1505.22 767.245 1506.82 769.309 1509.91 771.373 1512.99 772.103 1517.16 771.499 1522.41 770.793 1527.28 769.729 1532.18 768.308 1537.09 766.886 1542 765.917 1546.13 765.398 1549.5 765.094 1551.85 765.29 1553.63 765.986 1554.86 766.682 1556.09 767.8 1556.7 769.338 1556.71 771.149 1556.61 773.332 1555.38 775.887 1553.05 778.441 1550.71 780.925 1547.89 783.339 1544.6 785.752 1541.3 787.653 1538.16 789.04 1535.19L790.152 1535.66 790.49 1534.3C791.248 1531.29 792.052 1528.12 792.902 1524.81 794.601 1518.19 796.136 1512.16 797.506 1506.73L813.771 1506.73C812.655 1511.17 811.328 1516.33 809.788 1522.21 808.249 1528.1 806.836 1533.65 805.551 1538.87 804.266 1544.09 803.447 1547.93 803.094 1550.39 802.898 1551.59 803.004 1552.91 803.412 1554.36 803.82 1555.8 804.944 1556.58 806.783 1556.71 809.409 1556.6 811.971 1555.2 814.469 1552.53 816.967 1549.86 819.271 1546.59 821.382 1542.73 823.493 1538.87 825.28 1535.09 826.746 1531.41 828.211 1527.73 829.225 1524.81 829.787 1522.68L833.599 1506.73 849.996 1506.73C849.257 1509.59 848.237 1513.79 846.937 1519.33 845.636 1524.88 844.174 1531.09 842.549 1537.95 840.924 1544.82 839.254 1551.66 837.54 1558.48 842.799 1555.99 847.375 1552.59 851.267 1548.27 855.16 1543.94 858.084 1539.59 860.038 1535.2L862.197 1536.05 862.632 1534.3C863.39 1531.29 864.194 1528.12 865.044 1524.81 866.743 1518.19 868.278 1512.16 869.648 1506.73L885.922 1506.73C884.809 1511.14 883.502 1516.16 882.002 1521.77 880.502 1527.39 879.129 1532.7 877.884 1537.71 876.638 1542.72 875.84 1546.52 875.49 1549.12 875.281 1550.38 875.35 1551.91 875.697 1553.72 876.044 1555.53 877.163 1556.53 879.052 1556.71 881.646 1556.6 884.131 1555.21 886.505 1552.57 888.879 1549.92 891.037 1546.7 892.978 1542.9 894.918 1539.11 896.535 1535.44 897.828 1531.89 899.12 1528.34 899.982 1525.61 900.412 1523.69L904.349 1506.73 920.741 1506.73C919.621 1511.17 918.272 1516.33 916.692 1522.21 915.112 1528.1 913.659 1533.65 912.332 1538.87 911.007 1544.09 910.166 1547.93 909.809 1550.39 909.571 1551.87 909.698 1553.27 910.191 1554.59 910.683 1555.92 911.827 1556.62 913.623 1556.71 916.106 1556.55 918.723 1555.13 921.475 1552.43 924.226 1549.73 926.703 1546.71 928.904 1543.37 931.104 1540.02 932.62 1537.3 933.451 1535.2L937.527 1536.94 945.237 1506.73 961.125 1506.73 957.566 1522.03C959.952 1517.67 962.966 1513.81 966.606 1510.43 970.248 1507.05 974.691 1505.27 979.937 1505.09 983.779 1505.07 986.772 1506.37 988.914 1508.98 991.056 1511.58 991.792 1515.6 991.122 1521.02 993.503 1516.32 996.304 1512.53 999.527 1509.64 1002.75 1506.75 1006.6 1505.23 1011.07 1505.09 1015.65 1505.07 1018.91 1506.63 1020.85 1509.77 1022.79 1512.91 1023.39 1517.37 1022.63 1523.17 1022 1527.51 1021.04 1531.92 1019.74 1536.42 1018.44 1540.92 1017.54 1544.9 1017.04 1548.36 1016.72 1550.87 1016.82 1552.87 1017.34 1554.39 1017.86 1555.9 1018.82 1556.67 1020.21 1556.71 1022.7 1556.54 1025.37 1555.03 1028.2 1552.2 1031.03 1549.37 1033.59 1546.27 1035.87 1542.91 1038.15 1539.54 1039.71 1536.97 1040.55 1535.19L1045 1537.09C1043.64 1541.3 1041.22 1546.07 1037.71 1551.39 1034.21 1556.71 1030.14 1561.36 1025.51 1565.34 1020.88 1569.33 1016.19 1571.42 1011.45 1571.63 1007.43 1571.56 1004.32 1569.93 1002.13 1566.74 999.937 1563.56 999.149 1559.24 999.766 1553.79 1000.33 1549.82 1001.27 1545.51 1002.59 1540.88 1003.91 1536.25 1004.92 1531.94 1005.61 1527.97 1005.99 1525.34 1005.89 1523.43 1005.29 1522.25 1004.69 1521.07 1003.57 1520.49 1001.92 1520.51 999.495 1520.6 997.224 1521.84 995.114 1524.21 993.004 1526.59 991.148 1529.54 989.545 1533.09 987.943 1536.63 986.689 1540.2 985.784 1543.79L979.047 1569.98 962.65 1569.98 967.48 1551.13C968.558 1547.2 969.676 1542.98 970.833 1538.46 971.99 1533.94 972.821 1529.94 973.327 1526.46 973.603 1524.66 973.465 1523.22 972.914 1522.15 972.363 1521.08 971.272 1520.54 969.641 1520.51 966.857 1520.59 964.192 1522.1 961.648 1525.02 959.103 1527.94 956.862 1531.51 954.925 1535.74 952.988 1539.97 951.538 1544.08 950.575 1548.09L945.364 1569.98 929.094 1569.98 936.787 1539.84 935.937 1541.93C935.124 1543.65 934.151 1545.48 933.018 1547.43 930.754 1551.31 928.07 1555.1 924.967 1558.79 921.865 1562.48 918.562 1565.55 915.058 1567.97 911.555 1570.4 908.07 1571.66 904.603 1571.75 899.399 1571.54 896.06 1569.5 894.586 1565.61 893.112 1561.72 892.726 1557.23 893.428 1552.16 891.625 1555.19 889.592 1558.19 887.331 1561.17 885.071 1564.15 882.465 1566.64 879.513 1568.64 876.561 1570.64 873.146 1571.67 869.268 1571.75 865.492 1571.67 862.534 1570 860.394 1566.76 858.253 1563.52 857.486 1559.2 858.092 1553.8 858.227 1552.88 858.495 1551.51 858.896 1549.69L859.288 1547.98 858.354 1549.6C856.008 1553.31 853.487 1556.54 850.791 1559.32 845.399 1564.86 840.008 1569.51 834.617 1573.27 833.491 1578.62 832.113 1584.35 830.483 1590.44 828.854 1596.53 826.355 1601.76 822.989 1606.13 819.622 1610.51 814.77 1612.8 808.433 1613 804.834 1612.94 802.1 1611.7 800.23 1609.29 798.36 1606.87 797.626 1603.65 798.025 1599.6 798.748 1595.03 800.463 1590.89 803.17 1587.18 805.878 1583.47 808.797 1580.3 811.929 1577.68 815.061 1575.05 817.623 1573.08 819.618 1571.75L824.829 1547.48C823.014 1550.84 820.839 1554.38 818.304 1558.1 815.77 1561.82 812.832 1564.99 809.493 1567.62 806.154 1570.26 802.37 1571.63 798.141 1571.75 793.768 1571.68 790.482 1570.03 788.283 1566.81 786.084 1563.59 785.307 1559.25 785.95 1553.8 786.018 1553.34 786.118 1552.77 786.252 1552.08L786.669 1550.09 784.944 1553.38C781.094 1558.61 776.89 1562.92 772.334 1566.34 767.778 1569.75 763.519 1571.55 759.556 1571.75 759.429 1571.75 759.302 1571.75 759.175 1571.75 755.424 1571.66 752.545 1569.94 750.54 1566.6 748.534 1563.25 747.815 1558.81 748.381 1553.28 749.027 1549.28 750.085 1544.73 751.557 1539.63 753.028 1534.54 754.088 1529.76 754.737 1525.32 754.909 1523.85 754.66 1522.7 753.99 1521.89 753.32 1521.07 752.34 1520.65 751.051 1520.64 747.354 1520.82 743.594 1523.68 739.77 1529.21 735.946 1534.74 732.885 1541.83 730.586 1550.5L725.502 1569.98 709.232 1569.98 714.304 1550.11 713.355 1551.27C710.309 1554.34 706.495 1555.94 701.915 1556.08 701.211 1556.07 700.46 1556.02 699.661 1555.9 698.862 1555.79 698.048 1555.64 697.217 1555.44 693.533 1560.99 689.306 1565.1 684.537 1567.77 679.768 1570.44 674.84 1571.77 669.752 1571.75 662.187 1571.58 656.9 1568.29 653.891 1561.86 653.139 1560.25 652.58 1558.51 652.214 1556.64L651.76 1551.38 646.152 1558.84C644.124 1561.18 641.958 1563.36 639.652 1565.38 635.039 1569.42 630.402 1571.54 625.739 1571.75 621.726 1571.68 618.641 1570.03 616.484 1566.81 614.328 1563.59 613.561 1559.25 614.183 1553.8 614.318 1552.88 614.586 1551.51 614.986 1549.69L615.666 1546.71 612.53 1551.53C608.517 1556.84 603.918 1561.46 598.734 1565.41 593.549 1569.35 588.64 1571.43 584.007 1571.63 580.121 1571.55 577.131 1569.93 575.038 1566.74 572.945 1563.56 572.21 1559.25 572.832 1553.81 572.887 1553.3 573.047 1552.41 573.31 1551.16L573.582 1549.95 572.507 1551.27C569.46 1554.34 565.646 1555.94 561.066 1556.08 560.363 1556.07 559.611 1556.02 558.812 1555.9 558.014 1555.79 557.199 1555.64 556.368 1555.44 552.684 1560.99 548.457 1565.1 543.689 1567.77 538.92 1570.44 533.991 1571.77 528.904 1571.75 521.339 1571.58 516.051 1568.29 513.042 1561.86 511.538 1558.64 510.806 1554.9 510.845 1550.62L510.872 1550.47 510.486 1551.22C506.97 1556.55 502.897 1561.23 498.266 1565.26 493.635 1569.29 489.007 1571.42 484.382 1571.63 480.551 1571.55 477.578 1569.93 475.461 1566.74 473.344 1563.56 472.593 1559.25 473.207 1553.8 473.368 1552.69 473.997 1549.9 475.094 1545.43 476.191 1540.95 477.556 1535.53 479.187 1529.15 480.819 1522.78 482.516 1516.19 484.28 1509.39 486.044 1502.59 487.673 1496.3 489.166 1490.54 490.66 1484.77 491.817 1480.26 492.639 1477Z" fill="#240058" fill-rule="evenodd"/><path d="M873 1244C873 1236.82 878.82 1231 886 1231 893.18 1231 899 1236.82 899 1244 899 1251.18 893.18 1257 886 1257 878.82 1257 873 1251.18 873 1244Z" fill="#240058" fill-rule="evenodd"/></g></svg>